<?xml version="1.0" encoding="utf-8"?>
<!-- Generator: Adobe Illustrator 19.2.0, SVG Export Plug-In . SVG Version: 6.00 Build 0)  -->
<svg version="1.1" id="Layer_1" xmlns="http://www.w3.org/2000/svg" xmlns:xlink="http://www.w3.org/1999/xlink" x="0px" y="0px"
	 viewBox="0 0 795 524" style="enable-background:new 0 0 795 524;" xml:space="preserve">
<style type="text/css">
	.st0{fill:#F5E2C2;}
	.st1{fill:#F0D29F;}
	.st2{fill:#FFFFFF;}
</style>
<path class="st0" d="M729.5,101.2v340.2c0,18.6-15.1,33.7-33.7,33.7H144.5c-4.8,0-9.5-1-13.7-2.9c-11.8-5.2-20-17.1-20-30.8V101.2
	c0-18.6,15.1-33.7,33.7-33.7h8.8c18.6,0,33.7-15.1,33.7-33.7c0-9.4,3.8-17.8,9.9-23.9C203,3.8,211.4,0,220.8,0h140.7
	c18.6,0,33.7,15.1,33.7,33.7c0,9.4,3.8,17.8,9.8,23.9c6.1,6.1,14.5,9.9,23.9,9.9h266.9c2.1,0,4,0.2,6,0.6l0,0
	C717.7,70.9,729.5,84.6,729.5,101.2z"/>
<path class="st1" d="M380.7,40.4c0-0.1,0-0.2,0-0.3C378.9,26.3,365.8,15,351.9,15H220.8c-5,0-9.7,2-13.3,5.5
	c-3.6,3.6-5.4,8.2-5.4,13.3c0,2.4-0.2,4.8-0.6,7.2c-0.9,6.2,3.9,11.8,10.2,11.8l158.9-0.6C376.7,52.1,381.5,46.6,380.7,40.4z"/>
<path class="st1" d="M243.2,363.6v123.4c0,6.8-5.4,12.2-12.2,12.2H31c-1.7,0-3.5-0.3-5-1c-4.3-1.8-7.3-6.2-7.3-11.2V363.6
	c0-6.8,5.4-12.2,12.2-12.2h3.2c6.8,0,12.2-5.4,12.2-12.2c0-3.3,1.4-6.5,3.6-8.7c2.2-2.2,5.3-3.6,8.7-3.6h51
	c6.8,0,12.2,5.4,12.2,12.2c0,3.3,1.4,6.5,3.6,8.7c2.2,2.2,5.3,3.6,8.7,3.6h96.9c0.7,0,1.5,0.1,2.2,0.2l0,0
	C238.9,352.6,243.2,357.6,243.2,363.6z"/>
<polygon class="st2" points="268.2,454 268.2,483 227.4,483 227.4,524 198.3,524 198.3,483 157.4,483 157.4,454 198.3,454 
	198.3,413.1 227.4,413.1 227.4,454 "/>
</svg>
