<?xml version="1.0" encoding="utf-8"?>
<!-- Generator: Adobe Illustrator 19.2.0, SVG Export Plug-In . SVG Version: 6.00 Build 0)  -->
<svg version="1.1" id="Layer_1" xmlns="http://www.w3.org/2000/svg" xmlns:xlink="http://www.w3.org/1999/xlink" x="0px" y="0px"
	 viewBox="0 0 795 524" style="enable-background:new 0 0 795 524;" xml:space="preserve">
<style type="text/css">
	.st0{fill:#F5E2C2;}
	.st1{fill:#F0D29F;}
	.st2{fill:#FFFFFF;}
</style>
<path class="st0" d="M682,130.9v294.7c0,16.1-13.1,29.2-29.2,29.2H175.2c-4.2,0-8.2-0.9-11.9-2.5c-10.2-4.5-17.3-14.8-17.3-26.7
	V130.9c0-16.1,13.1-29.2,29.2-29.2h7.6c16.1,0,29.2-13.1,29.2-29.2c0-8.1,3.3-15.4,8.6-20.7c5.3-5.3,12.6-8.6,20.7-8.6h121.9
	c16.1,0,29.2,13.1,29.2,29.2c0,8.1,3.3,15.4,8.5,20.7c5.3,5.3,12.6,8.6,20.7,8.6h231.2c1.8,0,3.5,0.2,5.2,0.5c0,0,0,0,0,0
	C671.7,104.6,682,116.5,682,130.9z"/>
<path class="st1" d="M379.8,78.2c0-0.1,0-0.2,0-0.3c-1.5-11.9-12.9-21.7-24.9-21.7H241.3c-4.3,0-8.4,1.7-11.5,4.8
	c-3.1,3.1-4.7,7.1-4.7,11.5c0,2.1-0.2,4.2-0.5,6.2c-0.8,5.4,3.4,10.2,8.8,10.2L371,88.4C376.4,88.3,380.5,83.6,379.8,78.2z"/>
<path class="st1" d="M260.7,358.2v106.9c0,5.9-4.7,10.6-10.6,10.6H76.9c-1.5,0-3-0.3-4.3-0.9c-3.7-1.6-6.3-5.4-6.3-9.7V358.2
	c0-5.9,4.7-10.6,10.6-10.6h2.8c5.9,0,10.6-4.7,10.6-10.6c0-2.9,1.2-5.6,3.1-7.5c1.9-1.9,4.6-3.1,7.5-3.1h44.2
	c5.9,0,10.6,4.7,10.6,10.6c0,2.9,1.2,5.6,3.1,7.5c1.9,1.9,4.6,3.1,7.5,3.1h83.9c0.6,0,1.3,0.1,1.9,0.2c0,0,0,0,0,0
	C257,348.6,260.7,353,260.7,358.2z"/>
<polygon class="st2" points="282.4,436.5 282.4,461.6 247,461.6 247,497.1 221.8,497.1 221.8,461.6 186.4,461.6 186.4,436.5 
	221.8,436.5 221.8,401 247,401 247,436.5 "/>
</svg>
