<?xml version="1.0" encoding="utf-8"?>
<!-- Generator: Adobe Illustrator 19.1.0, SVG Export Plug-In . SVG Version: 6.00 Build 0)  -->
<svg version="1.1" id="Layer_1" xmlns="http://www.w3.org/2000/svg" xmlns:xlink="http://www.w3.org/1999/xlink" x="0px" y="0px"
	 viewBox="0 0 1066 1066" style="enable-background:new 0 0 1066 1066;" xml:space="preserve">
<style type="text/css">
	.st0{fill:#A22426;}
	.st1{fill:#1B554A;}
	.st2{fill:#E6B258;}
	.st3{fill:#EEEEEE;}
</style>
<path class="st0" d="M635,473.9L212.8,977.7c-34.4,34.4-90.1,34.4-124.5,0s-34.4-90.1,0-124.5L592.1,431
	c-54.6-80.5-6.4-178,81.7-266.1C739.2,99.5,812.6,58.7,877.3,62.8L714.4,225.8c-6,6-6,15.7,0,21.6c6,6,15.7,6,21.6,0L913.2,70.2
	c13.5,4.9,26.5,12.2,38.7,22.2L766.5,277.9c-6,6-6,15.7,0,21.6c6,6,15.7,6,21.6,0l185.4-185.4c10.5,12.8,18,26.4,22.9,40.7
	L819.9,331.3c-6,6-6,15.7,0,21.6c6,6,15.7,6,21.6,0l161.7-161.7c2.9,64.1-37.7,136.4-102.3,201C813,480.3,715.4,528.5,635,473.9z"/>
<path class="st0" d="M478.5,435.6l503.8,422.2c34.4,34.4,34.4,90.1,0,124.5s-90.1,34.4-124.5,0L435.6,478.5
	c-80.5,54.6-205.1,33.4-293.1-54.6C45.3,326.8,29.6,185,107.3,107.3s219.5-62,316.6,35.2C512,230.5,533.1,355.2,478.5,435.6z"/>
</svg>
