<?xml version="1.0" encoding="utf-8"?>
<!-- Generator: Adobe Illustrator 19.2.0, SVG Export Plug-In . SVG Version: 6.00 Build 0)  -->
<svg version="1.1" id="Layer_1" xmlns="http://www.w3.org/2000/svg" xmlns:xlink="http://www.w3.org/1999/xlink" x="0px" y="0px"
	 viewBox="0 0 795 524" style="enable-background:new 0 0 795 524;" xml:space="preserve">
<style type="text/css">
	.st0{fill:#EFCD95;}
	.st1{fill:#FFFFFF;}
</style>
<path class="st0" d="M407.7,9.3l58.6,120c2.1,4.4,10,6.3,16.1,3.8l161.8-67c8.9-3.7,19.7,2.3,15.8,8.7L588,191.6
	c-2.7,4.3,1.5,9.1,8.5,9.7l189.2,17.3c10.5,0.9,12.9,10.1,3.6,13.4l-168.7,58.9c-6.2,2.2-7.7,7.6-3,11.1l128,93.5
	c7,5.1,0,13.2-10.3,11.7l-186.6-26.5c-6.8-1-13.3,2.6-13,7.2l7.1,126c0.5,6.9-12.9,10.1-19.2,4.6L406.2,419
	c-4.4-3.7-12.7-3.7-17.1,0l-117.2,99.5c-6.4,5.5-19.7,2.3-19.2-4.6l7.1-126c0.3-4.6-6.2-8.2-13-7.2L60.1,407.2
	c-10.3,1.5-17.3-6.6-10.3-11.7l128-93.5c4.7-3.4,3.3-8.9-3-11.1L5.7,232c-9.2-3.2-6.8-12.4,3.6-13.4l189.2-17.3
	c7-0.6,11.2-5.4,8.5-9.7L135.1,74.8c-3.9-6.4,6.8-12.4,15.8-8.7l161.8,67c5.9,2.5,13.8,0.6,16.1-3.8l58.6-120
	C390.5,2.7,404.5,2.7,407.7,9.3z"/>
<g>
	<path class="st1" d="M481.4,393.4c0,15.5-169.3,15.5-169.3,0V224.1h169.3V393.4z"/>
	<path class="st0" d="M481.5,371.5c0,15.5-169.3,15.5-169.3,0V202.2h169.3V371.5z"/>
	<path class="st1" d="M481.4,362.1c0,15.5-169.3,15.5-169.3,0V192.9h169.3V362.1z"/>
	<path class="st0" d="M349.6,340.1L349.6,340.1c-6.2,0-11.2-5-11.2-11.2V220.3c0-6.2,5-11.2,11.2-11.2l0,0c6.2,0,11.2,5,11.2,11.2
		v108.5C360.8,335.1,355.8,340.1,349.6,340.1z"/>
	<path class="st0" d="M396.8,346.4L396.8,346.4c-6.2,0-11.2-5-11.2-11.2V226.5c0-6.2,5-11.2,11.2-11.2l0,0c6.2,0,11.2,5,11.2,11.2
		v108.5C408.1,341.3,403.1,346.4,396.8,346.4z"/>
	<path class="st0" d="M444.2,340.1L444.2,340.1c-6.2,0-11.2-5-11.2-11.2V220.3c0-6.2,5-11.2,11.2-11.2l0,0c6.2,0,11.2,5,11.2,11.2
		v108.5C455.4,335.1,450.4,340.1,444.2,340.1z"/>
	<path class="st1" d="M540.1,211.3c0,32.8-26.6,59.4-59.4,59.4c-16.7,0-31.7-6.9-42.6-17.9c-11.9,7.3-26,11.5-41,11.5
		c-14.8,0-28.7-4.1-40.5-11.2c-10.8,10.8-25.7,17.6-42.2,17.6c-32.8,0-59.4-26.6-59.4-59.4s26.6-59.4,59.4-59.4
		c3.8,0,7.5,0.4,11,1.1c12.4-27.2,39.9-46,71.7-46c31.9,0,59.3,19,71.7,46.2c3.8-0.8,7.8-1.1,11.8-1.1
		C513.5,151.9,540.1,178.4,540.1,211.3z"/>
</g>
</svg>
