<?xml version="1.0" encoding="utf-8"?>
<!-- Generator: Adobe Illustrator 19.2.0, SVG Export Plug-In . SVG Version: 6.00 Build 0)  -->
<svg version="1.1" id="Layer_1" xmlns="http://www.w3.org/2000/svg" xmlns:xlink="http://www.w3.org/1999/xlink" x="0px" y="0px"
	 viewBox="0 0 795 524" style="enable-background:new 0 0 795 524;" xml:space="preserve">
<style type="text/css">
	.st0{fill:#EFCD95;}
	.st1{fill:#FFFFFF;}
</style>
<path class="st0" d="M403.4,9.3l38.7,120c1.4,4.4,6.6,6.3,10.6,3.8l106.8-67c5.9-3.7,13,2.3,10.4,8.7l-47.5,116.8
	c-1.8,4.3,1,9.1,5.6,9.7l124.9,17.3c6.9,0.9,8.5,10.1,2.4,13.4l-111.4,58.9c-4.1,2.2-5.1,7.6-2,11.1l84.5,93.5
	c4.6,5.1,0,13.2-6.8,11.7l-123.2-26.5c-4.5-1-8.8,2.6-8.6,7.2l4.7,126c0.3,6.9-8.5,10.1-12.7,4.6l-77.4-99.5
	c-2.9-3.7-8.4-3.7-11.3,0l-77.4,99.5c-4.2,5.5-13,2.3-12.7-4.6l4.7-126c0.2-4.6-4.1-8.2-8.6-7.2l-123.2,26.5
	c-6.8,1.5-11.4-6.6-6.8-11.7l84.5-93.5c3.1-3.4,2.2-8.9-2-11.1L138,232c-6.1-3.2-4.5-12.4,2.4-13.4l124.9-17.3
	c4.6-0.6,7.4-5.4,5.6-9.7L223.4,74.8c-2.6-6.4,4.5-12.4,10.4-8.7l106.8,67c3.9,2.5,9.1,0.6,10.6-3.8l38.7-120
	C392,2.7,401.3,2.7,403.4,9.3z"/>
<g>
	<path class="st1" d="M492.7,442.8c0,17.6-192,17.6-192,0v-192h192V442.8z"/>
	<path class="st0" d="M492.8,418c0,17.6-192,17.6-192,0V226h192V418z"/>
	<path class="st1" d="M492.7,407.4c0,17.6-192,17.6-192,0v-192h192V407.4z"/>
	<path class="st0" d="M343.2,382.4L343.2,382.4c-7,0-12.7-5.7-12.7-12.7V246.5c0-7,5.7-12.7,12.7-12.7l0,0c7,0,12.7,5.7,12.7,12.7
		v123.1C355.9,376.7,350.2,382.4,343.2,382.4z"/>
	<path class="st0" d="M396.7,389.5L396.7,389.5c-7,0-12.7-5.7-12.7-12.7V253.6c0-7,5.7-12.7,12.7-12.7h0c7,0,12.7,5.7,12.7,12.7
		v123.1C409.5,383.8,403.8,389.5,396.7,389.5z"/>
	<path class="st0" d="M450.5,382.4L450.5,382.4c-7,0-12.7-5.7-12.7-12.7V246.5c0-7,5.7-12.7,12.7-12.7h0c7,0,12.7,5.7,12.7,12.7
		v123.1C463.2,376.7,457.5,382.4,450.5,382.4z"/>
	<path class="st1" d="M559.2,236.3c0,37.2-30.2,67.4-67.4,67.4c-18.9,0-36-7.8-48.3-20.3c-13.5,8.3-29.5,13-46.5,13
		c-16.8,0-32.5-4.6-45.9-12.7c-12.2,12.3-29.2,20-47.9,20c-37.2,0-67.4-30.2-67.4-67.4s30.2-67.4,67.4-67.4c4.3,0,8.5,0.4,12.5,1.2
		c14.1-30.8,45.2-52.2,81.3-52.2c36.2,0,67.3,21.5,81.3,52.4c4.3-0.9,8.8-1.3,13.4-1.3C529.1,168.9,559.2,199,559.2,236.3z"/>
</g>
</svg>
