<?xml version="1.0" encoding="utf-8"?>
<!-- Generator: Adobe Illustrator 19.2.0, SVG Export Plug-In . SVG Version: 6.00 Build 0)  -->
<svg version="1.1" id="Layer_1" xmlns="http://www.w3.org/2000/svg" xmlns:xlink="http://www.w3.org/1999/xlink" x="0px" y="0px"
	 viewBox="0 0 795 524" style="enable-background:new 0 0 795 524;" xml:space="preserve">
<style type="text/css">
	.st0{fill:#EFEEED;}
	.st1{fill:#E6B258;}
	.st2{fill:#BEBEBF;}
	.st3{fill:#FFFFFF;}
	.st4{fill:#23B892;}
</style>
<g>
	<path class="st0" d="M622.4,314.1H188.6c-5,0-9-4-9-9V13c0-5,4-9,9-9h433.8c5,0,9,4,9,9v292C631.4,310,627.4,314.1,622.4,314.1z"/>
	<path class="st1" d="M211.2,273.4V44.7c0-5,4-9,9-9h370.5c5,0,9,4,9,9v228.8c0,5-4,9-9,9H220.2
		C215.2,282.4,211.2,278.4,211.2,273.4z"/>
	<path class="st2" d="M660.4,345.7H150.6c-5,0-9-4-9-9v-13.6c0-5,4-9,9-9h509.8c5,0,9,4,9,9v13.6
		C669.4,341.7,665.3,345.7,660.4,345.7z"/>
	<g>
		<path class="st0" d="M450.7,235.7v14c0,10.2-111.7,10.2-111.7,0v-20.6c0,0.1,0,0.3,0.1,0.4v5.7
			C339.1,245.4,447.6,245.5,450.7,235.7z"/>
		<path class="st0" d="M339.1,168.8v60.8c0-0.1-0.1-0.3-0.1-0.4L339.1,168.8C339.1,168.8,339.1,168.8,339.1,168.8z"/>
		<path class="st0" d="M450.8,168.8v66.5c0,0.1,0,0.3-0.1,0.4L450.8,168.8C450.7,168.8,450.7,168.8,450.8,168.8z"/>
		<path class="st0" d="M339.1,168.8v60.8c0-0.1-0.1-0.3-0.1-0.4L339.1,168.8C339.1,168.8,339.1,168.8,339.1,168.8z"/>
		<path class="st0" d="M450.2,90.4c-2.7,0-5.3,0.3-7.8,0.8c-8.2-18-26.3-30.5-47.3-30.5c-21,0-39.1,12.5-47.3,30.4
			c-2.4-0.4-4.8-0.7-7.3-0.7c-21.7,0-39.2,17.6-39.2,39.2c0,21.2,16.8,38.4,37.7,39.2c0,0,0,0,0.1,0v60.8
			c3.1,9.8,111.6,9.7,111.6-0.4v-60.3c0,0,0,0,0.1,0c21.4-0.3,38.6-17.7,38.6-39.2C489.4,107.9,471.8,90.4,450.2,90.4z M371.1,207.2
			c0,4.1-3.3,7.4-7.4,7.4c-4.1,0-7.4-3.3-7.4-7.4v-41.7c4.5-2,8.6-4.8,12.1-8.3c0.9,0.5,1.8,1.1,2.8,1.5V207.2z M402.3,211.3
			c0,4.1-3.3,7.4-7.4,7.4c-4.1,0-7.4-3.3-7.4-7.4V164c2.5,0.4,5,0.6,7.6,0.6c2.4,0,4.8-0.2,7.2-0.5V211.3z M433.5,207.2
			c0,4.1-3.3,7.4-7.4,7.4c-4.1,0-7.4-3.3-7.4-7.4v-48.3c1.2-0.6,2.3-1.2,3.4-1.9c3.3,3.4,7.1,6.1,11.4,8.1V207.2z"/>
	</g>
	<circle class="st3" cx="695.6" cy="479.3" r="9"/>
	<path class="st4" d="M540.3,491h243.9c5,0,9-4,9-9V168.5c0-5-4-9-9-9H540.3c-5,0-9,4-9,9V482C531.3,487,535.3,491,540.3,491z"/>
	<path class="st1" d="M561.3,452V198.5c0-5,4-9,9-9h183.8c5,0,9,4,9,9V452c0,5-4,9-9,9H570.4C565.4,461,561.3,457,561.3,452z"/>
	<g>
		<path class="st0" d="M701.6,377.3v9.9c0,7.3-79.4,7.3-79.4,0v-14.6c0,0.1,0,0.2,0,0.3v4.1C622.3,384.2,699.4,384.3,701.6,377.3z"
			/>
		<path class="st0" d="M622.3,329.7V373c0-0.1,0-0.2,0-0.3L622.3,329.7C622.2,329.7,622.2,329.7,622.3,329.7z"/>
		<path class="st0" d="M701.7,329.7V377c0,0.1,0,0.2,0,0.3L701.7,329.7C701.6,329.7,701.7,329.7,701.7,329.7z"/>
		<path class="st0" d="M622.3,329.7V373c0-0.1,0-0.2,0-0.3L622.3,329.7C622.2,329.7,622.2,329.7,622.3,329.7z"/>
		<path class="st0" d="M701.3,274c-1.9,0-3.8,0.2-5.5,0.6c-5.8-12.8-18.7-21.7-33.7-21.7c-14.9,0-27.8,8.9-33.6,21.6
			c-1.7-0.3-3.4-0.5-5.2-0.5c-15.4,0-27.9,12.5-27.9,27.9c0,15.1,11.9,27.3,26.8,27.9c0,0,0,0,0,0V373c2.2,7,79.4,6.9,79.4-0.3
			v-42.9c0,0,0,0,0,0c15.2-0.2,27.5-12.6,27.5-27.9C729.2,286.4,716.7,274,701.3,274z M645,357c0,2.9-2.4,5.3-5.3,5.3
			c-2.9,0-5.3-2.4-5.3-5.3v-29.7c3.2-1.4,6.1-3.4,8.6-5.9c0.6,0.4,1.3,0.8,2,1.1V357z M667.2,360c0,2.9-2.4,5.3-5.3,5.3
			c-2.9,0-5.3-2.4-5.3-5.3v-33.6c1.8,0.3,3.6,0.4,5.4,0.4c1.7,0,3.4-0.1,5.1-0.4V360z M689.4,357c0,2.9-2.4,5.3-5.3,5.3
			c-2.9,0-5.3-2.4-5.3-5.3v-34.4c0.8-0.4,1.6-0.9,2.4-1.3c2.3,2.4,5.1,4.4,8.1,5.8V357z"/>
	</g>
	<path class="st4" d="M129.7,384.6H10.8c-5,0-9-4-9-9V137.7c0-5,4-9,9-9h118.9c5,0,9,4,9,9v237.9
		C138.7,380.5,134.7,384.6,129.7,384.6z"/>
	<path class="st1" d="M15,341.9v-191c0-5,4-9,9-9h92.5c5,0,9,4,9,9v191c0,5-4,9-9,9H24C19,350.9,15,346.9,15,341.9z"/>
	<circle class="st0" cx="70.3" cy="367.1" r="9"/>
	<circle class="st0" cx="667.2" cy="479.3" r="9"/>
	<g>
		<path class="st0" d="M92.8,272.8v5.7c0,4.2-45.8,4.2-45.8,0v-8.4c0,0.1,0,0.1,0,0.2v2.4C47,276.7,91.5,276.8,92.8,272.8z"/>
		<path class="st0" d="M47,245.3v24.9c0-0.1,0-0.1,0-0.2L47,245.3C47,245.3,47,245.3,47,245.3z"/>
		<path class="st0" d="M92.8,245.3v27.3c0,0.1,0,0.1,0,0.2L92.8,245.3C92.8,245.3,92.8,245.3,92.8,245.3z"/>
		<path class="st0" d="M47,245.3v24.9c0-0.1,0-0.1,0-0.2L47,245.3C47,245.3,47,245.3,47,245.3z"/>
		<path class="st0" d="M92.5,213.2c-1.1,0-2.2,0.1-3.2,0.3C86,206.1,78.6,201,70,201c-8.6,0-16,5.1-19.4,12.5c-1-0.2-2-0.3-3-0.3
			c-8.9,0-16.1,7.2-16.1,16.1c0,8.7,6.9,15.7,15.5,16.1c0,0,0,0,0,0v24.9c1.3,4,45.7,4,45.7-0.2v-24.7c0,0,0,0,0,0
			c8.8-0.1,15.8-7.3,15.8-16.1C108.6,220.4,101.4,213.2,92.5,213.2z M60.1,261.1c0,1.7-1.4,3-3,3c-1.7,0-3-1.4-3-3V244
			c1.9-0.8,3.5-2,4.9-3.4c0.4,0.2,0.7,0.4,1.1,0.6V261.1z M72.9,262.7c0,1.7-1.4,3-3,3c-1.7,0-3-1.4-3-3v-19.4
			c1,0.2,2.1,0.2,3.1,0.2c1,0,2-0.1,3-0.2V262.7z M85.7,261.1c0,1.7-1.4,3-3,3c-1.7,0-3-1.4-3-3v-19.8c0.5-0.2,0.9-0.5,1.4-0.8
			c1.3,1.4,2.9,2.5,4.7,3.3V261.1z"/>
	</g>
	<path class="st0" d="M261,520H115.5c-5,0-9-4-9-9V273.1c0-5,4-9,9-9H261c5,0,9,4,9,9V511C270,516,266,520,261,520z"/>
	<path class="st1" d="M119.6,478.6V304c0-5,4-9,9-9h119.1c5,0,9,4,9,9v174.5c0,5-4,9-9,9H128.7C123.7,487.6,119.6,483.5,119.6,478.6
		z"/>
	<path class="st4" d="M147.9,284.5h-22.4c-1.8,0-3.2-1.4-3.2-3.2v-2.7c0-1.8,1.4-3.2,3.2-3.2h22.4c1.8,0,3.2,1.4,3.2,3.2v2.7
		C151.1,283.1,149.6,284.5,147.9,284.5z"/>
	<path class="st4" d="M198.2,511h-20c-2.1,0-3.8-1.7-3.8-3.8v-6.9c0-2.1,1.7-3.8,3.8-3.8h20c2.1,0,3.8,1.7,3.8,3.8v6.9
		C202,509.3,200.3,511,198.2,511z"/>
	<g>
		<path class="st0" d="M220.4,435.1v8.1c0,5.9-64.9,5.9-64.9,0v-12c0,0.1,0,0.2,0,0.3v3.3C155.6,440.7,218.6,440.8,220.4,435.1z"/>
		<path class="st0" d="M155.6,396.2v35.3c0-0.1,0-0.2,0-0.3L155.6,396.2C155.5,396.2,155.5,396.2,155.6,396.2z"/>
		<path class="st0" d="M220.4,396.2v38.6c0,0.1,0,0.2,0,0.2L220.4,396.2C220.4,396.2,220.4,396.2,220.4,396.2z"/>
		<path class="st0" d="M155.6,396.2v35.3c0-0.1,0-0.2,0-0.3L155.6,396.2C155.5,396.2,155.5,396.2,155.6,396.2z"/>
		<path class="st0" d="M220.1,350.7c-1.6,0-3.1,0.2-4.5,0.5c-4.7-10.4-15.3-17.7-27.5-17.7c-12.2,0-22.7,7.2-27.5,17.7
			c-1.4-0.3-2.8-0.4-4.2-0.4c-12.6,0-22.8,10.2-22.8,22.8c0,12.3,9.7,22.3,21.9,22.8c0,0,0,0,0,0v35.3c1.8,5.7,64.8,5.6,64.8-0.3
			v-35.1c0,0,0,0,0,0c12.4-0.2,22.4-10.3,22.4-22.8C242.9,360.9,232.7,350.7,220.1,350.7z M174.2,418.5c0,2.4-1.9,4.3-4.3,4.3
			c-2.4,0-4.3-1.9-4.3-4.3v-24.2c2.6-1.2,5-2.8,7-4.8c0.5,0.3,1.1,0.6,1.6,0.9V418.5z M192.3,420.9c0,2.4-1.9,4.3-4.3,4.3
			c-2.4,0-4.3-1.9-4.3-4.3v-27.5c1.4,0.2,2.9,0.3,4.4,0.3c1.4,0,2.8-0.1,4.2-0.3V420.9z M210.4,418.5c0,2.4-1.9,4.3-4.3,4.3
			c-2.4,0-4.3-1.9-4.3-4.3v-28.1c0.7-0.3,1.3-0.7,2-1.1c1.9,1.9,4.1,3.6,6.6,4.7V418.5z"/>
	</g>
</g>
</svg>
