<?xml version="1.0" encoding="utf-8"?>
<!-- Generator: Adobe Illustrator 19.1.0, SVG Export Plug-In . SVG Version: 6.00 Build 0)  -->
<svg version="1.1" id="Layer_1" xmlns="http://www.w3.org/2000/svg" xmlns:xlink="http://www.w3.org/1999/xlink" x="0px" y="0px"
	 viewBox="0 0 1050 1050" style="enable-background:new 0 0 1050 1050;" xml:space="preserve">
<style type="text/css">
	.st0{fill:#A22426;}
	.st1{fill:#1B554A;}
	.st2{fill:#E6B258;}
	.st3{fill:#EEEEEE;}
</style>
<g>
	<path class="st2" d="M794,965.7c0,49.8-542.7,49.8-542.7,0V423H794V965.7z"/>
	<path class="st3" d="M794.3,895.7c0,49.8-542.7,49.8-542.7,0V353h542.7V895.7z"/>
	<path class="st2" d="M794,865.7c0,49.8-542.7,49.8-542.7,0V323H794V865.7z"/>
	<path class="st3" d="M371.3,795L371.3,795c-19.9,0-36-16.1-36-36V411c0-19.9,16.1-36,36-36h0c19.9,0,36,16.1,36,36v348
		C407.3,778.9,391.2,795,371.3,795z"/>
	<path class="st3" d="M522.7,815L522.7,815c-19.9,0-36-16.1-36-36V431c0-19.9,16.1-36,36-36h0c19.9,0,36,16.1,36,36v348
		C558.7,798.9,542.5,815,522.7,815z"/>
	<path class="st3" d="M674.7,795L674.7,795c-19.9,0-36-16.1-36-36V411c0-19.9,16.1-36,36-36h0c19.9,0,36,16.1,36,36v348
		C710.7,778.9,694.5,795,674.7,795z"/>
	<path class="st2" d="M982.1,381.9c0,105.2-85.3,190.6-190.6,190.6c-53.5,0-101.8-22-136.4-57.5c-38.3,23.4-83.3,36.9-131.4,36.9
		c-47.5,0-91.9-13.1-129.8-35.9c-34.5,34.9-82.5,56.5-135.4,56.5c-105.2,0-190.6-85.3-190.6-190.6s85.3-190.6,190.6-190.6
		c12.1,0,24,1.1,35.5,3.3C333.7,107.6,421.6,47,523.7,47c102.2,0,190.3,60.8,230,148.2c12.2-2.5,24.9-3.8,37.9-3.8
		C896.8,191.4,982.1,276.7,982.1,381.9z"/>
</g>
</svg>
