<?xml version="1.0" encoding="utf-8"?>
<!-- Generator: Adobe Illustrator 19.2.0, SVG Export Plug-In . SVG Version: 6.00 Build 0)  -->
<svg version="1.1" id="Layer_1" xmlns="http://www.w3.org/2000/svg" xmlns:xlink="http://www.w3.org/1999/xlink" x="0px" y="0px"
	 viewBox="0 0 403.2 102.9" style="enable-background:new 0 0 403.2 102.9;" xml:space="preserve">
<style type="text/css">
	.st0{fill:#FFFFFF;}
	.st1{fill:#E6B258;}
	.st2{fill:#E5B158;}
	.st3{fill:#EFEEED;}
</style>
<g>
	<path class="st0" d="M361.1,38.2h-6.8V49h6.8c1.7,0,3-0.5,3.9-1.5c1-1,1.4-2.3,1.4-3.9s-0.5-2.9-1.5-3.9
		C364,38.7,362.7,38.2,361.1,38.2z"/>
	<path class="st0" d="M388.2,9.1H15c-3.3,0-6,2.7-6,6v72.8c0,3.3,2.7,6,6,6h373.2c3.3,0,6-2.7,6-6V15
		C394.2,11.7,391.5,9.1,388.2,9.1z M67.3,50v18.8c0,3.1-33.8,3.2-34.7,0.1v1.8c0,3.1,33.8,3.2,34.7,0.1v4.3c0,3.2-34.7,3.2-34.7,0
		v-6.4V50c-6.5-0.2-11.7-5.6-11.7-12.2c0-6.7,5.5-12.2,12.2-12.2c0.8,0,1.5,0.1,2.3,0.2c2.5-5.6,8.2-9.5,14.7-9.5
		c6.5,0,12.2,3.9,14.7,9.5c0.8-0.2,1.6-0.2,2.4-0.2c6.7,0,12.2,5.5,12.2,12.2C79.3,44.4,73.9,49.9,67.3,50z M102.5,61.6
		c2.2,2.3,5.1,3.5,8.9,3.5c3.7,0,6.5-1.6,8.2-4.9h13c-1.5,4.7-4.2,8.4-8.1,11c-3.9,2.6-8.3,4-13.3,4c-6.4,0-11.9-2.2-16.3-6.5
		c-4.5-4.3-6.7-9.8-6.7-16.5s2.2-12.1,6.7-16.5c4.5-4.3,9.9-6.5,16.3-6.5c5,0,9.4,1.3,13.3,4c3.9,2.6,6.6,6.3,8.1,11h-13
		c-1.7-3.3-4.4-4.9-8.2-4.9c-3.8,0-6.7,1.2-8.9,3.5c-2.2,2.3-3.2,5.5-3.2,9.4C99.3,56.2,100.4,59.3,102.5,61.6z M179.4,74.8h-10.9
		V56.2h-17.3v18.6h-10.9V29.9h10.9v18h17.3v-18h10.9V74.8z M217.2,38.1h-16.2v9.7h14.3v8.3h-14.3v10.4h16.2v8.3H190v-45h27.2V38.1z
		 M256.4,38.2h-18.3v9.7h13.7v8.3h-13.7v18.6h-10.9V29.9h29.2V38.2z M293.5,38.2h-18.3v9.7h13.7v8.3h-13.7v18.6h-10.9V29.9h29.2
		V38.2z M331.1,38.1h-16.2v9.7h14.3v8.3h-14.3v10.4h16.2v8.3h-27.2v-45h27.2V38.1z M365.7,74.8l-10.1-17.5h-1.3v17.5h-10.9V29.9
		h17.7c5.2,0,9.2,1.3,12.1,4c2.9,2.7,4.3,5.9,4.3,9.7c0,2.6-0.8,5.1-2.4,7.6c-1.6,2.5-4.2,4.2-7.7,5.2l11,18.3H365.7z"/>
	<path class="st1" d="M388.2,0H15C6.7,0,0,6.7,0,15v72.8c0,8.3,6.7,15,15,15h373.2c8.3,0,15-6.7,15-15V15C403.2,6.7,396.5,0,388.2,0
		z M394.2,87.8c0,3.3-2.7,6-6,6H15c-3.3,0-6-2.7-6-6V15c0-3.3,2.7-6,6-6h373.2c3.3,0,6,2.7,6,6V87.8z"/>
	<path class="st1" d="M111.4,39.3c3.7,0,6.5,1.6,8.2,4.9h13c-1.5-4.7-4.2-8.4-8.1-11c-3.9-2.6-8.3-4-13.3-4
		c-6.4,0-11.9,2.2-16.3,6.5c-4.5,4.3-6.7,9.8-6.7,16.5s2.2,12.1,6.7,16.5c4.5,4.3,9.9,6.5,16.3,6.5c5,0,9.4-1.3,13.3-4
		c3.9-2.6,6.6-6.3,8.1-11h-13c-1.7,3.3-4.4,4.9-8.2,4.9c-3.8,0-6.7-1.2-8.9-3.5c-2.2-2.3-3.2-5.5-3.2-9.4c0-3.9,1.1-7.1,3.2-9.4
		C104.7,40.5,107.6,39.3,111.4,39.3z"/>
	<polygon class="st1" points="168.5,47.9 151.2,47.9 151.2,29.9 140.3,29.9 140.3,74.8 151.2,74.8 151.2,56.2 168.5,56.2 
		168.5,74.8 179.4,74.8 179.4,29.9 168.5,29.9 	"/>
	<polygon class="st1" points="190,74.8 217.2,74.8 217.2,66.5 200.9,66.5 200.9,56.1 215.2,56.1 215.2,47.8 200.9,47.8 200.9,38.1 
		217.2,38.1 217.2,29.8 190,29.8 	"/>
	<polygon class="st1" points="227.2,74.8 238.1,74.8 238.1,56.2 251.8,56.2 251.8,47.9 238.1,47.9 238.1,38.2 256.4,38.2 
		256.4,29.9 227.2,29.9 	"/>
	<polygon class="st1" points="264.3,74.8 275.2,74.8 275.2,56.2 288.9,56.2 288.9,47.9 275.2,47.9 275.2,38.2 293.5,38.2 
		293.5,29.9 264.3,29.9 	"/>
	<polygon class="st1" points="303.9,74.8 331.1,74.8 331.1,66.5 314.8,66.5 314.8,56.1 329.2,56.1 329.2,47.8 314.8,47.8 
		314.8,38.1 331.1,38.1 331.1,29.8 303.9,29.8 	"/>
	<path class="st1" d="M375.2,51.3c1.6-2.5,2.4-5,2.4-7.6c0-3.8-1.4-7-4.3-9.7c-2.9-2.7-6.9-4-12.1-4h-17.7v44.9h10.9V57.3h1.3
		l10.1,17.5h12.8l-11-18.3C371,55.5,373.6,53.7,375.2,51.3z M365,47.6c-1,1-2.3,1.5-3.9,1.5h-6.8V38.2h6.8c1.6,0,2.9,0.5,3.9,1.5
		c1,1,1.5,2.3,1.5,3.9S365.9,46.6,365,47.6z"/>
	<path class="st0" d="M41.6,46.3c-1.1,1.1-2.3,2-3.7,2.6v13.3c0,1.1,0.9,2,2,2h0.6c1.1,0,2-0.9,2-2V46.8
		C42.2,46.7,41.9,46.5,41.6,46.3z"/>
	<path class="st0" d="M50,48.6c-0.8,0-1.6-0.1-2.4-0.2v15c0,1.1,0.9,2,2,2h0.6c1.1,0,2-0.9,2-2v-15C51.5,48.6,50.7,48.6,50,48.6z"/>
	<path class="st0" d="M58.4,46.3c-0.3,0.2-0.7,0.4-1.1,0.6v15.3c0,1.1,0.9,2,2,2h0.6c1.1,0,2-0.9,2-2V48.8
		C60.6,48.2,59.4,47.3,58.4,46.3z"/>
	<path class="st2" d="M67.1,25.6c-0.8,0-1.6,0.1-2.4,0.2c-2.5-5.6-8.2-9.5-14.7-9.5c-6.5,0-12.2,3.9-14.7,9.5
		c-0.7-0.1-1.5-0.2-2.3-0.2c-6.7,0-12.2,5.5-12.2,12.2c0,6.6,5.2,11.9,11.7,12.2v18.8v6.4c0,3.2,34.7,3.2,34.7,0v-4.3
		c-1,3.1-34.7,3-34.7-0.1v-1.8c1,3.1,34.7,3,34.7-0.1V50c6.7-0.1,12-5.5,12-12.2C79.3,31,73.8,25.6,67.1,25.6z M40.5,64.2h-0.6
		c-1.1,0-2-0.9-2-2V48.9c1.4-0.6,2.7-1.5,3.7-2.6c0.3,0.2,0.6,0.3,0.9,0.5v15.4C42.5,63.3,41.6,64.2,40.5,64.2z M50.2,65.5h-0.6
		c-1.1,0-2-0.9-2-2v-15c0.8,0.1,1.6,0.2,2.4,0.2c0.8,0,1.5-0.1,2.2-0.2v15C52.2,64.6,51.3,65.5,50.2,65.5z M59.9,64.2h-0.6
		c-1.1,0-2-0.9-2-2V46.9c0.4-0.2,0.7-0.4,1.1-0.6c1,1,2.2,1.9,3.6,2.5v13.4C61.9,63.3,61,64.2,59.9,64.2z"/>
</g>
</svg>
