<?xml version="1.0" encoding="utf-8"?>
<!-- Generator: Adobe Illustrator 19.1.0, SVG Export Plug-In . SVG Version: 6.00 Build 0)  -->
<svg version="1.1" id="Layer_1" xmlns="http://www.w3.org/2000/svg" xmlns:xlink="http://www.w3.org/1999/xlink" x="0px" y="0px"
	 viewBox="-288 380 34 34" style="enable-background:new -288 380 34 34;" xml:space="preserve">
<style type="text/css">
	.st0{fill:#FFFFFF;}
</style>
<g>
	<path class="st0" d="M-256,390.4v16.5c0,0.9-0.7,1.6-1.6,1.6h-26.8c-0.9,0-1.6-0.7-1.6-1.6v-0.7c0,0.6,0.4,1.2,0.9,1.5
		c0.2,0.1,0.4,0.1,0.6,0.1h26c0.9,0,1.6-0.7,1.6-1.6v-16.1c0-0.8-0.6-1.4-1.3-1.6C-257,388.7-256,389.5-256,390.4z"/>
	<path class="st0" d="M-256.7,390.9v15.4c0,0.9-0.7,1.6-1.6,1.6h-26c-0.2,0-0.4,0-0.6-0.1c-0.6-0.2-0.9-0.8-0.9-1.5v-15.4
		c0-0.7,0.4-1.3,1-1.5c0.2-0.1,0.4-0.1,0.6-0.1h0.4c0.5,0,1-0.3,1.3-0.7c0.2-0.3,0.3-0.6,0.3-0.9c0-0.4,0.2-0.8,0.5-1.1
		c0.1-0.1,0.3-0.3,0.5-0.3c0.2-0.1,0.4-0.1,0.6-0.1h6.6c0.9,0,1.6,0.7,1.6,1.6c0,0.4,0.2,0.8,0.5,1.1c0.3,0.3,0.7,0.5,1.1,0.5h12.6
		C-257.5,389.3-256.7,390-256.7,390.9z"/>
	<path class="st0" d="M-270.8,388.6h-0.2c-0.4,0-0.8-0.2-1.1-0.5c-0.3-0.3-0.5-0.7-0.5-1.1c0-0.9-0.7-1.6-1.6-1.6h0.7
		c0.9,0,1.6,0.7,1.6,1.6c0,0.5,0.2,0.9,0.5,1.2C-271.2,388.4-271,388.6-270.8,388.6z"/>
	<path class="st0" d="M-256.7,390.2v16.1c0,0.9-0.7,1.6-1.6,1.6h-26c-0.2,0-0.4,0-0.6-0.1c-0.1-0.2-0.2-0.5-0.2-0.8v-16.5
		c0-0.4,0.1-0.7,0.3-1c0.3-0.4,0.8-0.7,1.3-0.7h0.4c0.2,0,0.4,0,0.6-0.1c0.6-0.2,1-0.8,1-1.5c0-0.3,0.1-0.6,0.2-0.8
		c0.1-0.1,0.1-0.2,0.2-0.3c0.3-0.3,0.7-0.5,1.1-0.5h5.9c0.9,0,1.6,0.7,1.6,1.6c0,0.4,0.2,0.8,0.5,1.1c0.3,0.3,0.7,0.5,1.1,0.5h0.2
		c0.2,0.1,0.3,0.1,0.5,0.1c0,0,11.1-0.1,12.2-0.1c0,0,0,0,0,0C-257.3,388.8-256.7,389.4-256.7,390.2z"/>
	<path class="st0" d="M-256.7,390.2v16.1c0,0.9-0.7,1.6-1.6,1.6h-26c-0.9,0-1.6-0.7-1.6-1.6v-16.1c0-0.9,0.7-1.6,1.6-1.6h0.4
		c0.9,0,1.6-0.7,1.6-1.6l0,0c0-0.9,0.7-1.6,1.6-1.6h6.6c0.9,0,1.6,0.7,1.6,1.6l0,0c0,0.9,0.7,1.6,1.6,1.6h12.6
		C-257.5,388.6-256.7,389.3-256.7,390.2z"/>
	<path class="st0" d="M-256.7,390.2v16.1c0,0.9-0.7,1.6-1.6,1.6h-26c-0.9,0-1.6-0.7-1.6-1.6v-16.1c0-0.9,0.7-1.6,1.6-1.6h0.4
		c0.9,0,1.6-0.7,1.6-1.6l0,0c0-0.9,0.7-1.6,1.6-1.6h6.6c0.9,0,1.6,0.7,1.6,1.6l0,0c0,0.9,0.7,1.6,1.6,1.6h12.6
		C-257.5,388.6-256.7,389.3-256.7,390.2z"/>
	<path class="st0" d="M-256.7,390.2v16.1c0,0.9-0.7,1.6-1.6,1.6h-26c-0.2,0-0.4,0-0.6-0.1c-0.6-0.2-0.9-0.8-0.9-1.5v-16.1
		c0-0.9,0.7-1.6,1.6-1.6h0.4c0.9,0,1.6-0.7,1.6-1.6c0-0.4,0.2-0.8,0.5-1.1c0.3-0.3,0.7-0.5,1.1-0.5h6.6c0.9,0,1.6,0.7,1.6,1.6
		c0,0.4,0.2,0.8,0.5,1.1c0.3,0.3,0.7,0.5,1.1,0.5h12.6c0.1,0,0.2,0,0.3,0c0,0,0,0,0,0C-257.3,388.8-256.7,389.4-256.7,390.2z"/>
</g>
</svg>
