<?xml version="1.0" encoding="utf-8"?>
<!-- Generator: Adobe Illustrator 19.2.0, SVG Export Plug-In . SVG Version: 6.00 Build 0)  -->
<svg version="1.1" id="Layer_1" xmlns="http://www.w3.org/2000/svg" xmlns:xlink="http://www.w3.org/1999/xlink" x="0px" y="0px"
	 viewBox="0 0 403.2 102.9" style="enable-background:new 0 0 403.2 102.9;" xml:space="preserve">
<style type="text/css">
	.st0{fill:#FFFFFF;}
	.st1{fill:#E6B258;}
	.st2{fill:#E5B158;}
	.st3{fill:#EFEEED;}
</style>
<g>
	<path class="st3" d="M388.2,0H15C6.7,0,0,6.7,0,15v72.8c0,8.3,6.7,15,15,15h373.2c8.3,0,15-6.7,15-15V15C403.2,6.7,396.5,0,388.2,0
		z M394.2,87.8c0,3.3-2.7,6-6,6H15c-3.3,0-6-2.7-6-6V15c0-3.3,2.7-6,6-6h373.2c3.3,0,6,2.7,6,6V87.8z"/>
	<path class="st3" d="M119.6,60.2h13c-1.5,4.7-4.2,8.4-8.1,11c-3.9,2.6-8.3,4-13.3,4c-6.4,0-11.9-2.2-16.3-6.5
		c-4.4-4.3-6.7-9.8-6.7-16.5c0-6.7,2.2-12.1,6.7-16.5c4.5-4.3,9.9-6.5,16.3-6.5c5,0,9.4,1.3,13.3,4c3.9,2.6,6.6,6.3,8.1,11h-13
		c-1.7-3.3-4.4-4.9-8.2-4.9s-6.7,1.2-8.9,3.5c-2.2,2.3-3.2,5.5-3.2,9.4c0,3.9,1.1,7.1,3.2,9.4c2.2,2.3,5.1,3.5,8.9,3.5
		S117.8,63.5,119.6,60.2z"/>
	<polygon class="st3" points="179.5,29.9 179.5,74.8 168.5,74.8 168.5,56.2 151.2,56.2 151.2,74.8 140.3,74.8 140.3,29.9 
		151.2,29.9 151.2,47.9 168.5,47.9 168.5,29.9 	"/>
	<polygon class="st3" points="200.9,38.1 200.9,47.8 215.2,47.8 215.2,56.1 200.9,56.1 200.9,66.5 217.2,66.5 217.2,74.8 190,74.8 
		190,29.8 217.2,29.8 217.2,38.1 	"/>
	<polygon class="st3" points="238.1,38.2 238.1,47.9 251.8,47.9 251.8,56.2 238.1,56.2 238.1,74.8 227.2,74.8 227.2,29.9 
		256.4,29.9 256.4,38.2 	"/>
	<polygon class="st3" points="275.2,38.2 275.2,47.9 288.9,47.9 288.9,56.2 275.2,56.2 275.2,74.8 264.3,74.8 264.3,29.9 
		293.5,29.9 293.5,38.2 	"/>
	<polygon class="st3" points="314.8,38.1 314.8,47.8 329.2,47.8 329.2,56.1 314.8,56.1 314.8,66.5 331.1,66.5 331.1,74.8 
		303.9,74.8 303.9,29.8 331.1,29.8 331.1,38.1 	"/>
	<path class="st3" d="M367.4,56.5c3.6-1,6.2-2.8,7.7-5.2c1.6-2.5,2.4-5,2.4-7.6c0-3.8-1.5-7-4.3-9.7c-2.9-2.7-6.9-4-12.1-4h-17.7
		v44.9h10.9V57.3h1.3l10.1,17.5h12.8L367.4,56.5z M365,47.6c-1,1-2.3,1.5-3.9,1.5h-6.8V38.2h6.8c1.6,0,2.9,0.5,3.9,1.5
		c1,1,1.5,2.3,1.5,3.9C366.4,45.3,365.9,46.6,365,47.6z"/>
	<path class="st3" d="M42.5,46.8L42.5,46.8c-0.3-0.1-0.6-0.3-0.9-0.5l0,0C41.9,46.5,42.2,46.7,42.5,46.8z"/>
	<path class="st3" d="M67.1,25.6c-0.8,0-1.6,0.1-2.4,0.2c-2.5-5.6-8.2-9.5-14.7-9.5c-6.5,0-12.2,3.9-14.7,9.5
		c-0.7-0.1-1.5-0.2-2.3-0.2c-6.7,0-12.2,5.5-12.2,12.2c0,6.6,5.2,11.9,11.7,12.2v25.2c0,3.2,34.7,3.2,34.7,0v-4.3
		c-1,3-34.7,3-34.7-0.1v-1.8c1,3,34.7,3,34.7-0.1V50c6.7-0.1,12-5.5,12-12.2C79.3,31,73.8,25.6,67.1,25.6z M42.5,62.2
		c0,1.1-0.9,2-2,2h-0.6c-0.5,0-1-0.2-1.4-0.6c-0.4-0.4-0.6-0.9-0.6-1.4V48.9h0c1.4-0.6,2.7-1.5,3.7-2.6c0.3,0.2,0.6,0.3,0.9,0.5
		V62.2z M52.2,63.5c0,1.1-0.9,2-2,2h-0.6c-1.1,0-2-0.9-2-2v-15c0.8,0.1,1.6,0.2,2.4,0.2c0.8,0,1.5,0,2.2-0.1V63.5z M61.9,62.2
		c0,1.1-0.9,2-2,2h-0.6c-1.1,0-2-0.9-2-2V46.9c0.4-0.2,0.7-0.4,1-0.6c0.8,0.8,1.6,1.5,2.6,2c0.3,0.2,0.6,0.3,1,0.5V62.2z"/>
</g>
</svg>
