<?xml version="1.0" encoding="utf-8"?>
<!-- Generator: Adobe Illustrator 19.2.0, SVG Export Plug-In . SVG Version: 6.00 Build 0)  -->
<svg version="1.1" id="Layer_1" xmlns="http://www.w3.org/2000/svg" xmlns:xlink="http://www.w3.org/1999/xlink" x="0px" y="0px"
	 viewBox="0 0 282 282" style="enable-background:new 0 0 282 282;" xml:space="preserve">
<style type="text/css">
	.st0{fill:#EFEEED;}
	.st1{fill:#E6B258;}
</style>
<path class="st1" d="M216.1,48.3c-3.6,0-7.1,0.3-10.5,1c-11-24.3-35.5-41.1-63.9-41.1c-28.3,0-52.8,16.8-63.8,41
	c-3.2-0.6-6.5-0.9-9.8-0.9c-29.3,0-52.9,23.7-52.9,52.9c0,28.6,22.6,51.8,50.9,52.9v109.3c0,13.8,150.7,13.8,150.7,0v-18.9
	c-4.1,13.2-150.6,13.1-150.6-0.6v-7.8c4.1,13.2,150.6,13.1,150.6-0.6v-81.5c28.9-0.4,52.3-23.9,52.3-52.9
	C269,71.9,245.3,48.3,216.1,48.3z M109.3,207.2c0,4.8-3.9,8.7-8.7,8.7h-2.5c-2.4,0-4.6-1-6.2-2.6c-1.6-1.5-2.6-3.7-2.6-6.2v-57.5h0
	c6.1-2.7,11.6-6.5,16.2-11.2c1.2,0.7,2.5,1.4,3.7,2.1V207.2z M151.4,212.7c0,4.8-3.9,8.7-8.8,8.7h-2.5c-4.8,0-8.7-3.9-8.7-8.7v-65.1
	c3.3,0.5,6.8,0.7,10.3,0.7c3.3,0,6.6-0.2,9.7-0.7V212.7z M193.6,207.2c0,4.8-3.9,8.7-8.8,8.7h-2.5c-4.8,0-8.7-3.9-8.7-8.7v-66.5
	c1.6-0.8,3.1-1.6,4.6-2.6c3.3,3.4,7.1,6.3,11.2,8.8c1.4,0.8,2.8,1.5,4.3,2.2V207.2z"/>
</svg>
