<?xml version="1.0" encoding="utf-8"?>
<!-- Generator: Adobe Illustrator 19.2.0, SVG Export Plug-In . SVG Version: 6.00 Build 0)  -->
<svg version="1.1" id="Layer_1" xmlns="http://www.w3.org/2000/svg" xmlns:xlink="http://www.w3.org/1999/xlink" x="0px" y="0px"
	 viewBox="0 0 600 155" style="enable-background:new 0 0 600 155;" xml:space="preserve">
<style type="text/css">
	.st0{fill:#FFFFFF;}
	.st1{fill:#E6B258;}
	.st2{fill:#E5B158;}
</style>
<g>
	<path class="st0" d="M535.3,58.1h-10V74h10c2.5,0,4.4-0.7,5.8-2.2c1.4-1.4,2.1-3.3,2.1-5.7c0-2.4-0.7-4.3-2.2-5.8
		C539.6,58.8,537.7,58.1,535.3,58.1z"/>
	<path class="st0" d="M575.4,15H24.6c-4.8,0-8.8,3.9-8.8,8.8v107.5c0,4.8,3.9,8.8,8.8,8.8h550.8c4.8,0,8.8-3.9,8.8-8.8V23.8
		C584.2,19,580.2,15,575.4,15z M101.7,75.4v27.7c0,4.6-49.8,4.7-51.2,0.2v2.6c0,4.6,49.8,4.7,51.2,0.2v6.4c0,4.7-51.3,4.7-51.3,0
		v-9.4V75.4c-9.6-0.4-17.3-8.3-17.3-18c0-9.9,8.1-18,18-18c1.1,0,2.3,0.1,3.3,0.3c3.8-8.2,12.1-14,21.7-14c9.7,0,18,5.7,21.7,14
		c1.2-0.2,2.4-0.4,3.6-0.4c9.9,0,18,8.1,18,18C119.5,67.3,111.5,75.3,101.7,75.4z M153.7,92.6c3.2,3.5,7.5,5.2,13.1,5.2
		c5.5,0,9.6-2.4,12.1-7.3h19.2c-2.3,6.9-6.3,12.3-12,16.2s-12.3,5.8-19.6,5.8c-9.5,0-17.5-3.2-24.1-9.6s-9.9-14.5-9.9-24.3
		s3.3-17.9,9.9-24.3c6.6-6.4,14.6-9.6,24.1-9.6c7.4,0,13.9,2,19.6,5.8c5.7,3.9,9.7,9.3,12,16.2h-19.2c-2.5-4.8-6.5-7.3-12.1-7.3
		c-5.5,0-9.9,1.7-13.1,5.2c-3.2,3.5-4.8,8.1-4.8,13.9C149,84.5,150.6,89.2,153.7,92.6z M267.3,112.1h-16.1V84.6h-25.6v27.5h-16.1
		V45.8h16.1v26.5h25.6V45.8h16.1V112.1z M322.9,57.9h-24v14.2H320v12.3h-21v15.4h24v12.3h-40.1V45.6H323v12.3H322.9z M380.9,58.1
		h-27v14.2h20.2v12.3h-20.2v27.5h-16.1V45.8h43.1V58.1z M435.6,58.1h-27v14.2h20.2v12.3h-20.2v27.5h-16.1V45.8h43.1V58.1z M491,57.9
		h-24v14.2h21.1v12.3H467v15.4h24v12.3h-40V45.6h40V57.9z M542.1,112.1l-14.9-25.8h-1.9v25.8h-16.1V45.8h26.1c7.7,0,13.6,2,17.9,5.9
		c4.3,4,6.4,8.7,6.4,14.3c0,3.8-1.2,7.6-3.5,11.2s-6.1,6.2-11.4,7.7l16.2,27h-18.8V112.1z"/>
	<path class="st1" d="M575.4,1.7H24.6c-12.2,0-22.2,9.9-22.2,22.2v107.5c0,12.2,9.9,22.2,22.2,22.2h550.8c12.2,0,22.2-9.9,22.2-22.2
		V23.8C597.6,11.6,587.6,1.7,575.4,1.7z M584.2,131.3c0,4.8-3.9,8.8-8.8,8.8H24.6c-4.8,0-8.8-3.9-8.8-8.8V23.8
		c0-4.8,3.9-8.8,8.8-8.8h550.8c4.8,0,8.8,3.9,8.8,8.8L584.2,131.3L584.2,131.3z"/>
	<path class="st1" d="M166.8,59.7c5.5,0,9.6,2.4,12.1,7.3h19.2c-2.3-6.9-6.3-12.3-12-16.2S173.8,45,166.5,45
		c-9.5,0-17.5,3.2-24.1,9.6s-9.9,14.5-9.9,24.3s3.3,17.9,9.9,24.3c6.6,6.4,14.6,9.6,24.1,9.6c7.4,0,13.9-1.9,19.6-5.8
		c5.7-3.9,9.7-9.3,12-16.2h-19.2c-2.5,4.8-6.5,7.3-12.1,7.3c-5.5,0-9.9-1.7-13.1-5.2c-3.2-3.5-4.8-8.1-4.8-13.9s1.6-10.4,4.8-13.9
		C156.9,61.4,161.3,59.7,166.8,59.7z"/>
	<polygon class="st1" points="251.1,72.3 225.6,72.3 225.6,45.8 209.4,45.8 209.4,112.1 225.6,112.1 225.6,84.6 251.1,84.6 
		251.1,112.1 267.3,112.1 267.3,45.8 251.1,45.8 	"/>
	<polygon class="st1" points="282.8,112.1 322.9,112.1 322.9,99.8 299,99.8 299,84.4 320.1,84.4 320.1,72.2 299,72.2 299,57.9 
		322.9,57.9 322.9,45.6 282.8,45.6 	"/>
	<polygon class="st1" points="337.7,112.1 353.9,112.1 353.9,84.6 374.1,84.6 374.1,72.3 353.9,72.3 353.9,58.1 380.9,58.1 
		380.9,45.8 337.7,45.8 	"/>
	<polygon class="st1" points="392.5,112.1 408.6,112.1 408.6,84.6 428.8,84.6 428.8,72.3 408.6,72.3 408.6,58.1 435.6,58.1 
		435.6,45.8 392.5,45.8 	"/>
	<polygon class="st1" points="451,112.1 491,112.1 491,99.8 467.1,99.8 467.1,84.4 488.2,84.4 488.2,72.2 467.1,72.2 467.1,57.9 
		491,57.9 491,45.6 451,45.6 	"/>
	<path class="st1" d="M556.1,77.3c2.3-3.6,3.5-7.4,3.5-11.2c0-5.6-2.1-10.4-6.4-14.3c-4.3-4-10.3-5.9-17.9-5.9h-26.1v66.2h16.1V86.3
		h1.9l14.9,25.8H561l-16.2-27C550,83.6,553.8,81,556.1,77.3z M541.1,71.9c-1.4,1.4-3.3,2.2-5.8,2.2h-10v-16h10
		c2.4,0,4.3,0.8,5.8,2.3c1.4,1.5,2.2,3.4,2.2,5.8C543.2,68.5,542.5,70.4,541.1,71.9z"/>
	<path class="st0" d="M63.9,70.1c-1.6,1.6-3.5,2.9-5.5,3.8v19.6c0,1.6,1.3,3,3,3h0.9c1.6,0,3-1.3,3-3V70.8
		C64.7,70.6,64.3,70.3,63.9,70.1z"/>
	<path class="st0" d="M76.2,73.5c-1.2,0-2.4-0.1-3.5-0.3v22.1c0,1.6,1.3,3,3,3h0.9c1.6,0,3-1.3,3-3V73.2
		C78.4,73.4,77.3,73.5,76.2,73.5z"/>
	<path class="st0" d="M88.6,70c-0.5,0.3-1,0.6-1.6,0.9v22.6c0,1.6,1.3,3,3,3h0.9c1.6,0,3-1.3,3-3V73.7C91.8,72.8,90.1,71.5,88.6,70z
		"/>
	<path class="st2" d="M101.5,39.4c-1.2,0-2.4,0.1-3.6,0.4c-3.7-8.3-12.1-14-21.7-14s-17.9,5.7-21.7,14c-1.1-0.2-2.2-0.3-3.3-0.3
		c-9.9,0-18,8.1-18,18c0,9.7,7.7,17.6,17.3,18v27.7v9.4c0,4.7,51.3,4.7,51.3,0v-6.4c-1.4,4.5-51.2,4.4-51.2-0.2v-2.6
		c1.4,4.5,51.2,4.4,51.2-0.2V75.4c9.8-0.1,17.8-8.1,17.8-18C119.5,47.5,111.4,39.4,101.5,39.4z M62.2,96.4h-0.9c-1.6,0-3-1.3-3-3
		V73.9c2.1-0.9,4-2.2,5.5-3.8c0.4,0.2,0.8,0.5,1.3,0.7v22.7C65.2,95.1,63.8,96.4,62.2,96.4z M76.5,98.3h-0.9c-1.6,0-3-1.3-3-3V73.2
		c1.1,0.2,2.3,0.3,3.5,0.3c1.1,0,2.2-0.1,3.3-0.2v22.1C79.5,97,78.1,98.3,76.5,98.3z M90.8,96.4H90c-1.6,0-3-1.3-3-3V70.8
		c0.5-0.3,1-0.6,1.6-0.9c1.5,1.5,3.3,2.8,5.2,3.7v19.7C93.8,95.1,92.5,96.4,90.8,96.4z"/>
</g>
</svg>
