<?xml version="1.0" encoding="utf-8"?>
<!-- Generator: Adobe Illustrator 19.1.0, SVG Export Plug-In . SVG Version: 6.00 Build 0)  -->
<svg version="1.1" id="Layer_1" xmlns="http://www.w3.org/2000/svg" xmlns:xlink="http://www.w3.org/1999/xlink" x="0px" y="0px"
	 viewBox="382 790.2 317.8 317.8" style="enable-background:new 382 790.2 317.8 317.8;" xml:space="preserve">
<style type="text/css">
	.st0{opacity:0.5;}
	.st1{fill:#CF4B45;}
</style>
<g class="st0">
	<path class="st1" d="M441.7,824.4c1.4-0.1,2.8-0.1,4.2,0c8.1,0.5,15.7,4.3,22.2,9.1c0.8,0.6,1.6,1.2,2.6,1.4
		c1.4,0.3,2.8-0.1,4.1-0.6c4.6-1.5,9.5-2.4,14.3-2c10.7,0.8,20.6,8.1,24.9,17.9c4.3,9.8,3,21.8-3.1,30.6c-0.9,1.4-2,2.7-2.4,4.3
		c-0.3,1.4,0,2.8,0.2,4.2c1.7,11.6-4.2,24-14.2,30c-10,6-23.7,5.5-33.2-1.3c-0.6-0.4-1.2-0.9-1.9-0.9c-0.6,0-1.2,0.3-1.7,0.6
		c-12.7,7.2-30.2,4.5-40.1-6.2c-9.9-10.7-11.2-28.4-2.9-40.4c0.4-0.6,0.9-1.3,1-2.1c0.1-0.9-0.4-1.8-0.9-2.7
		c-2.8-5.4-2.6-12.1-0.5-17.8c2.5-6.8,7.6-12.8,12.7-17.8C431,827,436.3,824.9,441.7,824.4z M462.6,902.2
		C462.7,902.2,462.7,902.2,462.6,902.2c1.3,0.2,2.3,2.3,3,3.2c2.4,2.8,5.1,5.5,8.6,6.6c2.9,1,6.2,0.8,9.2,0
		c5.2-1.5,9.8-5.3,12.3-10.2c2.4-4.9,2.8-10.8,0.8-15.9c-0.5-1.3-1.1-2.6-0.8-3.9c0.4-1.3,1.6-2.2,2.6-3.1c3.3-2.9,4.9-7.4,5.9-11.8
		c0.8-3.7,1.4-7.5,0.2-11.1c-1-3-3.2-5.5-5.6-7.6c-2.8-2.4-6.1-4.3-9.8-4.8c-6.5-1-12.9,2.4-19.3,4.1c-0.7,0.2-1.4,0.4-2.1,0.2
		c-0.9-0.2-1.7-0.9-2.3-1.5c-5.6-5.3-12.3-10.8-20-10.7c-10.1,0.1-22.2,12.1-21.1,22.5c0.4,3.5,2.4,6.7,4.5,9.6
		c0.6,0.8,1.2,1.7,1.1,2.7c-0.1,0.9-0.8,1.6-1.4,2.3c-2.2,2.2-4.2,4.6-5.6,7.3c-3.3,6.2-3.1,14.2,0.5,20.2
		c3.6,6.1,10.5,10.1,17.5,10.2c4.5,0.1,8.7-1.3,12.7-3.2c2-1,4-2.1,5.9-3.3C460.2,903.4,461.5,902,462.6,902.2z"/>
</g>
<g class="st0">
	<path class="st1" d="M573.9,849.9c-0.4-0.4-0.4-1-0.4-1.6c0-4.2-1.7-13.8,0-17.6c0.7-1.6,1.8-2.8,3.2-3.6c0.5-0.3,1-0.4,1.5-0.4
		h85.3c0.5,0,1,0.1,1.5,0.4c1.2,0.7,2.2,1.6,2.9,2.9c0.3,0.5,0.4,1,0.4,1.5v85.3c0,0.5-0.1,1-0.4,1.5c-0.7,1.2-1.6,2.2-2.9,2.9
		c-0.5,0.3-1,0.4-1.5,0.4h-33.6c-1.6,0-2.9-1.2-3.2-2.7c-1.4-7.9-7.7-13.5-16-13.5c-4.1,0-8,1.6-10.9,4.4c-3.2,3.1-2.2,9.2-5.7,11.7
		c-1.8,1.3-14.6,1-16.6,0.1c-1.6-0.7-2.8-1.8-3.6-3.2c-0.3-0.5-0.4-1-0.4-1.5c0-5.7,0-11.4,0-17.1c0-8-0.9-7.7,4.3-11
		c7.8-4.9,16-6.7,16.6-18.1c0.5-10.3-8.6-20.1-19-20.3C574.9,850.3,574.3,850.3,573.9,849.9z M652,854.9c0.4-7.5-6.7-13.8-13.2-14
		c-8.8-0.3-15,6.8-15,14c0,8,6.3,14.1,14.1,14.3C645.9,869.2,652.3,862,652,854.9z M642.5,899.5c3,0.1,5.9-2.9,5.9-5.9
		c0-3-3.1-6-6.1-6c-2.9,0-5.9,3.2-5.8,6.3C636.5,896.6,639.2,899.8,642.5,899.5z"/>
</g>
<g class="st0">
	<path class="st1" d="M486.2,1071.4c-1.7,0-3.4,0-5.1,0c-0.2-0.1-0.4-0.3-0.5-0.3c-2.5-0.5-5-0.9-7.5-1.3c-4.4-0.8-8.8-2.2-13.2-2.1
		c-5.1,0-10.3,1.2-15.4,2.1c-4.6,0.8-9,0.1-13.3-1.4c-5.6-2.1-10.5-5.2-14.4-10c-3.4-4.2-6-8.8-6.9-14.1c-0.3-1.5-0.5-3.1-0.7-4.6
		c0-0.5,0-1,0-1.4c0.1-0.1,0.3-0.3,0.3-0.4c-0.1-4.1,1.2-7.8,2.9-11.4c2-4.4,2.8-9,1.8-13.8c-0.9-4.3-0.9-8.6-0.3-13
		c0.9-6.3,3.7-11.8,7.9-16.5c4.2-4.6,9.5-7.6,15.6-9c1.7-0.4,3.4-0.7,5.1-1.1c1.9,0,3.9,0,5.8,0c0.1,0.1,0.1,0.3,0.2,0.3
		c4.8,0.4,9.3,2.2,13.7,4c5.1,2.1,10.5,3.3,16,3.7c4.6,0.4,9.3,0.6,13.9,1.1c6.9,0.7,12.8,3.5,17.3,9c3.2,3.9,5.4,8.1,6.3,13.1
		c0.3,1.6,0.5,3.1,0.7,4.6c0,0.1,0,0.3,0,0.4c-0.1,0.2-0.4,0.4-0.3,0.5c0.2,3.7-0.8,7.1-2.2,10.3c-3.1,7.3-5.5,14.7-5.8,22.7
		c-0.3,6.3-2.2,12-5.8,17.2c-3.1,4.5-6.6,8.6-12.1,10.5C488.8,1070.8,487.5,1071.1,486.2,1071.4z M482.6,1022.2
		c0.4-10.6-9.3-19.4-18.6-19.9c-12.9-0.7-21.4,9.7-21.5,19.8c-0.1,11.2,9.2,20.2,19.9,20.4C473.1,1042.6,483.1,1033.6,482.6,1022.2z
		"/>
</g>
<g class="st0">
	<path class="st1" d="M614.7,970.5c4.1,0,8.2,0,12.3,0c1,0.3,2.1,0.5,3.2,0.7c6.5,0.9,12.3,3.4,17.9,6.8c5.4,3.3,10,7.4,13.8,12.4
		c4.1,5.2,7.1,11,8.8,17.4c0.8,2.8,1.2,5.6,1.8,8.4c0,4.1,0,8.2,0,12.3c-0.3,1-0.5,2.1-0.7,3.2c-0.9,6.5-3.4,12.3-6.8,17.9
		c-3.3,5.4-7.4,10-12.4,13.8c-5.2,4.1-11,7.1-17.4,8.8c-2.8,0.8-5.6,1.2-8.4,1.8c-4.1,0-8.2,0-12.3,0c-1-0.3-2.1-0.5-3.2-0.7
		c-6.5-0.9-12.3-3.4-17.9-6.8c-5.4-3.3-10-7.4-13.8-12.4c-4.1-5.2-7.1-11-8.8-17.4c-0.8-2.8-1.2-5.6-1.8-8.4c0-4.1,0-8.2,0-12.3
		c0.3-1,0.5-2.1,0.7-3.2c0.9-6.5,3.4-12.3,6.8-17.9c3.3-5.4,7.4-10,12.4-13.8c5.2-4.1,11-7.1,17.4-8.8
		C609.1,971.6,612,971.1,614.7,970.5z M662.1,1022.2c0.1-23.1-18.4-40.1-38.5-41.2c-26-1.4-43,19-44,38.6
		c-1.3,25.9,19,42.8,38.8,43.9C643.6,1064.8,662.5,1044.3,662.1,1022.2z"/>
	<path class="st1" d="M637.1,1021.8c2.5-1.1,4.9-2.3,7.4-3.2c2.8-1,4.8,0,5.7,2.7c0.8,2.3-0.6,4.7-3,5.5c-0.4,0.1-0.9,0.2-1.2,0.1
		c-3.3-0.8-6.1-2.6-8.8-4.5C637.1,1022.3,637.1,1022,637.1,1021.8z"/>
	<path class="st1" d="M629,1035.7c2.8,1.4,5.5,2.8,8.2,4.3c1.6,0.9,1.8,3.5,0.8,5.5c-0.9,1.6-3.4,2.5-5.2,1.9
		c-2.4-0.8-2.7-2.9-3.2-4.9c-0.5-2.1-0.7-4.2-1-6.3C628.8,1036,628.9,1035.9,629,1035.7z"/>
	<path class="st1" d="M628.4,1009.2c0.6-3.2,1-5.9,1.6-8.5c0.5-2.5,3.4-4,5.6-3.3c2.5,0.9,3.7,3.3,2.6,5.9c-0.4,0.9-1.1,1.8-2,2.2
		C633.8,1006.7,631.3,1007.8,628.4,1009.2z"/>
	<path class="st1" d="M605,1022.1c-3.7,1.5-6.7,4-10.6,3.4c-2-0.3-3.5-2.4-3.2-4.3c0.4-2.8,2.1-4,4.1-4.1c2.5,0,4.2,1.6,6.1,2.6
		C602.6,1020.2,603.5,1021,605,1022.1z"/>
	<path class="st1" d="M612.9,1009.1c-2.6-2-4.8-3.4-6.9-5.2c-2.1-1.8-2-5-0.1-6.6c2-1.6,4.4-1.7,6.4,0.7c0.3,0.3,0.5,0.7,0.5,1.1
		C612.9,1002.2,612.9,1005.4,612.9,1009.1z"/>
	<path class="st1" d="M612.9,1036.1c0,3.1,0.1,6.2-0.1,9.3c-0.1,1.8-1.8,3.1-3.7,3.1c-1.7,0-3.3-0.6-4.2-2.4
		c-0.7-1.3-0.6-3.7,0.5-4.7c2.2-2,4.6-3.8,6.9-5.7C612.6,1035.9,612.8,1036,612.9,1036.1z"/>
</g>
</svg>
