<?xml version="1.0" encoding="utf-8"?>
<!-- Generator: Adobe Illustrator 19.2.0, SVG Export Plug-In . SVG Version: 6.00 Build 0)  -->
<svg version="1.1" id="Layer_1" xmlns="http://www.w3.org/2000/svg" xmlns:xlink="http://www.w3.org/1999/xlink" x="0px" y="0px"
	 viewBox="0 0 795 524" style="enable-background:new 0 0 795 524;" xml:space="preserve">
<style type="text/css">
	.st0{fill:#F3DCB5;}
	.st1{fill:#FFFFFF;}
</style>
<path class="st0" d="M736,111.9V484c0,20.4-16.5,36.8-36.8,36.8H96.3c-5.3,0-10.4-1.2-15-3.2c-12.9-5.8-22-18.6-22-33.7V111.9
	c0-20.4,16.5-36.8,36.8-36.8h9.7c20.4,0,36.8-16.5,36.8-36.8c0-10.1,4.2-19.4,10.8-26.1c6.6-6.6,15.9-10.8,26.1-10.8h154
	c20.4,0,36.8,16.5,36.8,36.8c0,10.1,4.2,19.4,10.8,26.1c6.6,6.6,15.9,10.8,26.1,10.8h291.8c2.2,0,4.5,0.1,6.5,0.6l0,0
	C723,78.8,736,93.9,736,111.9z"/>
<path class="st1" d="M223.5,220.1l19.6,39.9c1,2.2,3,3.6,5.3,3.9l44.1,6.4c5.8,0.9,8.2,8.1,3.9,12.1l-31.8,31.1
	c-1.7,1.6-2.5,4-2,6.4l7.5,43.8c1,5.8-5.1,10.3-10.4,7.5l-39.3-20.7c-2-1.2-4.6-1.2-6.6,0L174.6,371c-5.2,2.7-11.4-1.7-10.4-7.5
	l7.5-43.8c0.4-2.3-0.4-4.6-2-6.4l-31.8-31.1c-4.2-4.2-1.9-11.3,3.9-12.1l44.1-6.4c2.3-0.3,4.3-1.7,5.3-3.9l19.6-39.9
	C213.3,214.9,220.9,214.9,223.5,220.1z"/>
<path class="st1" d="M412.7,220.1l19.6,39.9c1,2.2,3,3.6,5.3,3.9l44.1,6.4c5.8,0.9,8.2,8.1,3.9,12.1l-31.8,31.1
	c-1.7,1.6-2.5,4-2,6.4l7.5,43.8c1,5.8-5.1,10.3-10.4,7.5l-39.3-20.7c-2-1.2-4.6-1.2-6.6,0L363.8,371c-5.2,2.7-11.4-1.7-10.4-7.5
	l7.5-43.8c0.4-2.3-0.4-4.6-2-6.4l-31.8-31.1c-4.2-4.2-1.9-11.3,3.9-12.1l44.1-6.4c2.3-0.3,4.3-1.7,5.3-3.9l19.6-39.9
	C402.6,214.9,410.1,214.9,412.7,220.1z"/>
<path class="st1" d="M592.9,216.2v133.5c-1.2,0-2.3,0.3-3.3,0.9l-39.3,20.7c-5.2,2.7-11.4-1.7-10.4-7.5l7.5-43.8
	c0.4-2.3-0.4-4.6-2-6.4l-31.8-31.1c-4.2-4-1.9-11.3,3.9-12.1l43.9-6.5c2.3-0.3,4.3-1.7,5.3-3.9l19.6-39.9
	C587.7,217.5,590.3,216.2,592.9,216.2z"/>
</svg>
