<?xml version="1.0" encoding="utf-8"?>
<!-- Generator: Adobe Illustrator 19.2.0, SVG Export Plug-In . SVG Version: 6.00 Build 0)  -->
<svg version="1.1" id="Layer_1" xmlns="http://www.w3.org/2000/svg" xmlns:xlink="http://www.w3.org/1999/xlink" x="0px" y="0px"
	 viewBox="0 0 795 524" style="enable-background:new 0 0 795 524;" xml:space="preserve">
<style type="text/css">
	.st0{fill:#23B892;}
	.st1{fill:#E6B258;}
	.st2{fill:#EFEEED;}
	.st3{fill:#F8EBD7;}
	.st4{fill:#BEBEBF;}
	.st5{fill:none;stroke:#EFEEED;stroke-width:3;stroke-miterlimit:10;}
</style>
<path class="st0" d="M139,388.3H13.8c-5.9,0-10.7-4.7-10.7-10.7V169.4c0-5.9,4.7-10.7,10.7-10.7H139c5.9,0,10.7,4.7,10.7,10.7v208.1
	C149.9,383.5,145,388.3,139,388.3z"/>
<path class="st1" d="M14.9,348.4V197.2c0-5.9,4.7-10.7,10.7-10.7h101.6c5.9,0,10.7,4.7,10.7,10.7v151.3c0,5.9-4.7,10.7-10.7,10.7
	H25.7C19.7,359.1,14.9,354.4,14.9,348.4z"/>
<path class="st2" d="M39.3,177H21c-2.1,0-3.8-1.7-3.8-3.8v-0.6c0-2.1,1.7-3.8,3.8-3.8h18.3c2.1,0,3.8,1.7,3.8,3.8v0.6
	C43.1,175.3,41.3,177,39.3,177z"/>
<path class="st2" d="M84.3,380.1H68.5c-2.5,0-4.5-2-4.5-4.5v-4c0-2.5,2-4.4,4.5-4.4h15.8c2.5,0,4.4,2,4.4,4.4v4
	C88.8,378.2,86.8,380.1,84.3,380.1z"/>
<path class="st3" d="M218,250.5v55.1c0,3-2.5,5.5-5.5,5.5h-89.3c-0.8,0-1.5-0.1-2.3-0.5c-1.9-0.8-3.2-2.7-3.2-5v-55.1
	c0-3,2.5-5.5,5.5-5.5h1.4c3,0,5.5-2.5,5.5-5.5c0-1.5,0.6-2.8,1.5-3.9c0.9-0.9,2.4-1.5,3.9-1.5h22.8c3,0,5.5,2.5,5.5,5.5
	c0,1.5,0.6,2.8,1.5,3.9c0.9,0.9,2.4,1.5,3.9,1.5h43.2c0.4,0,0.7,0,0.9,0.1l0,0C216,245.5,218,247.7,218,250.5z"/>
<path class="st0" d="M747.5,300.6H367.9c-5.9,0-10.7-4.7-10.7-10.7V36.2c0-5.9,4.7-10.7,10.7-10.7h379.6c5.9,0,10.7,4.7,10.7,10.7
	v253.7C758.3,295.8,753.4,300.6,747.5,300.6z"/>
<path class="st1" d="M385.3,261.8V64.2c0-5.9,4.7-10.7,10.7-10.7h323.4c5.9,0,10.7,4.7,10.7,10.7v197.6c0,5.9-4.7,10.7-10.7,10.7
	H396C390.1,272.6,385.3,267.7,385.3,261.8z"/>
<path class="st4" d="M781.6,328.7H333.9c-5.7,0-10.4-4.6-10.4-10.4V311c0-5.7,4.6-10.4,10.4-10.4h447.6c5.7,0,10.4,4.6,10.4,10.4
	v7.2C791.9,324,787.3,328.7,781.6,328.7z"/>
<path class="st3" d="M557.7,240.6c0,0-95.6-56.8-92-110.2s68.2-61.1,92-12.9c23.9-48.2,88.5-40.5,92,12.9
	C653.2,183.7,557.7,240.6,557.7,240.6z"/>
<path class="st0" d="M708.7,201.2H493.1c-5.3,0-9.6,4.3-9.6,9.6V489c0,5.3,4.3,9.6,9.6,9.6h215.6c5.3,0,9.6-4.3,9.6-9.6V210.8
	C718.5,205.5,714.1,201.2,708.7,201.2z M602.1,494c-4.5,0-8.1-3.7-8.1-8.1c0-4.5,3.7-8.1,8.1-8.1c4.5,0,8.1,3.7,8.1,8.1
	C610.3,490.4,606.6,494,602.1,494z M691.5,462.1c0,5.3-4.3,9.6-9.6,9.6H520.1c-5.3,0-9.6-4.3-9.6-9.6V237.8c0-5.3,4.3-9.6,9.6-9.6
	h161.7c5.3,0,9.6,4.3,9.6,9.6v224.3H691.5z"/>
<path class="st0" d="M610.3,485.9c0,4.5-3.7,8.1-8.1,8.1c-4.5,0-8.1-3.7-8.1-8.1c0-4.5,3.7-8.1,8.1-8.1
	C606.6,477.8,610.3,481.5,610.3,485.9z"/>
<path class="st0" d="M691.5,237.8v224.3c0,5.3-4.3,9.6-9.6,9.6H520.1c-5.3,0-9.6-4.3-9.6-9.6V237.8c0-5.3,4.3-9.6,9.6-9.6h161.7
	C687.1,228,691.5,232.4,691.5,237.8z"/>
<path class="st1" d="M691.5,237.8v224.3c0,5.3-4.3,9.6-9.6,9.6H520.1c-5.3,0-9.6-4.3-9.6-9.6V237.8c0-5.3,4.3-9.6,9.6-9.6h161.7
	C687.1,228,691.5,232.4,691.5,237.8z"/>
<path class="st2" d="M610.3,485.9c0,4.5-3.7,8.1-8.1,8.1c-4.5,0-8.1-3.7-8.1-8.1c0-4.5,3.7-8.1,8.1-8.1
	C606.6,477.8,610.3,481.5,610.3,485.9z"/>
<path class="st3" d="M601,416.7c0,0-82.3-48.9-79.2-94.9c3-45.9,58.7-52.7,79.2-11.2c20.5-41.6,76.2-34.9,79.2,11.2
	C683.3,367.8,601,416.7,601,416.7z"/>
<path class="st2" d="M432.7,393h-106c-5.9,0-10.7-4.7-10.7-10.7V165.6c0-5.9,4.7-10.7,10.7-10.7h106c5.9,0,10.7,4.7,10.7,10.7v216.7
	C443.4,388.2,438.6,393,432.7,393z"/>
<path class="st1" d="M328.2,350.9v-173c0-5.9,4.7-10.7,10.7-10.7h81.4c5.9,0,10.7,4.7,10.7,10.7V351c0,5.9-4.7,10.7-10.7,10.7h-81.4
	C333.1,361.6,328.2,356.9,328.2,350.9z"/>
<circle class="st0" cx="379.6" cy="376.8" r="8.4"/>
<path class="st3" d="M379.6,310.1c0,0-44.5-26.5-42.9-51.4s31.8-28.5,42.9-6.1c11.2-22.4,41.3-18.9,42.9,6.1
	C424.2,283.6,379.6,310.1,379.6,310.1z"/>
<line class="st5" x1="42.6" y1="264.4" x2="107.8" y2="264.4"/>
<line class="st5" x1="42.6" y1="275.1" x2="107.8" y2="275.1"/>
<line class="st5" x1="42.6" y1="285.7" x2="107.8" y2="285.7"/>
</svg>
