<?xml version="1.0" encoding="utf-8"?>
<!-- Generator: Adobe Illustrator 19.2.0, SVG Export Plug-In . SVG Version: 6.00 Build 0)  -->
<svg version="1.1" id="Layer_1" xmlns="http://www.w3.org/2000/svg" xmlns:xlink="http://www.w3.org/1999/xlink" x="0px" y="0px"
	 viewBox="0 0 795 524" style="enable-background:new 0 0 795 524;" xml:space="preserve">
<style type="text/css">
	.st0{fill:#23B892;}
	.st1{fill:#E6B258;}
	.st2{fill:#EFEEED;}
	.st3{fill:#F8EBD7;}
	.st4{fill:#BEBEBF;}
	.st5{fill:none;stroke:#EFEEED;stroke-width:3;stroke-miterlimit:10;}
</style>
<path class="st0" d="M139,388.3H13.8c-5.9,0-10.7-4.7-10.7-10.7V169.4c0-5.9,4.7-10.7,10.7-10.7H139c5.9,0,10.7,4.7,10.7,10.7v208.1
	C149.9,383.5,145,388.3,139,388.3z"/>
<path class="st1" d="M14.9,348.4V197.2c0-5.9,4.7-10.7,10.7-10.7h101.6c5.9,0,10.7,4.7,10.7,10.7v151.3c0,5.9-4.7,10.7-10.7,10.7
	H25.7C19.7,359.1,14.9,354.4,14.9,348.4z"/>
<path class="st2" d="M39.3,177H21c-2.1,0-3.8-1.7-3.8-3.8v-0.6c0-2.1,1.7-3.8,3.8-3.8h18.3c2.1,0,3.8,1.7,3.8,3.8v0.6
	C43.1,175.3,41.3,177,39.3,177z"/>
<path class="st2" d="M84.3,380.1H68.5c-2.5,0-4.5-2-4.5-4.5v-4c0-2.5,2-4.4,4.5-4.4h15.8c2.5,0,4.4,2,4.4,4.4v4
	C88.8,378.2,86.8,380.1,84.3,380.1z"/>
<path class="st3" d="M218,250.5v55.1c0,3-2.5,5.5-5.5,5.5h-89.3c-0.8,0-1.5-0.1-2.3-0.5c-1.9-0.8-3.2-2.7-3.2-5v-55.1
	c0-3,2.5-5.5,5.5-5.5h1.4c3,0,5.5-2.5,5.5-5.5c0-1.5,0.6-2.8,1.5-3.9c0.9-0.9,2.4-1.5,3.9-1.5h22.8c3,0,5.5,2.5,5.5,5.5
	c0,1.5,0.6,2.8,1.5,3.9c0.9,0.9,2.4,1.5,3.9,1.5h43.2c0.4,0,0.7,0,0.9,0.1l0,0C216,245.5,218,247.7,218,250.5z"/>
<g>
	<path class="st0" d="M741.1,303.9H328.9c-6.4,0-11.6-5.1-11.6-11.6V16.8c0-6.4,5.1-11.6,11.6-11.6h412.2c6.4,0,11.6,5.1,11.6,11.6
		v275.5C752.8,298.7,747.5,303.9,741.1,303.9z"/>
	<path class="st1" d="M347.8,261.8V47.2c0-6.4,5.1-11.6,11.6-11.6h351.2c6.4,0,11.6,5.1,11.6,11.6v214.6c0,6.4-5.1,11.6-11.6,11.6
		H359.4C353,273.5,347.8,268.2,347.8,261.8z"/>
	<path class="st4" d="M778.1,334.4H292c-6.2,0-11.3-5-11.3-11.3v-7.9c0-6.2,5-11.3,11.3-11.3h486c6.2,0,11.3,5,11.3,11.3v7.8
		C789.3,329.3,784.3,334.4,778.1,334.4z"/>
	<path class="st3" d="M535,238.8c0,0-103.8-61.7-99.9-119.7c3.9-58,74.1-66.3,99.9-14c26-52.3,96.1-44,99.9,14
		C638.7,177,535,238.8,535,238.8z"/>
	<path class="st0" d="M699,196H464.9c-5.8,0-10.4,4.7-10.4,10.4v302.1c0,5.8,4.7,10.4,10.4,10.4H699c5.8,0,10.4-4.7,10.4-10.4V206.4
		C709.6,200.6,704.8,196,699,196z M583.2,513.9c-4.9,0-8.8-4-8.8-8.8c0-4.9,4-8.8,8.8-8.8c4.9,0,8.8,4,8.8,8.8
		C592.1,510,588.1,513.9,583.2,513.9z M680.3,479.3c0,5.8-4.7,10.4-10.4,10.4H494.2c-5.8,0-10.4-4.7-10.4-10.4V235.7
		c0-5.8,4.7-10.4,10.4-10.4h175.6c5.8,0,10.4,4.7,10.4,10.4v243.6H680.3z"/>
	<path class="st0" d="M610.3,485.9c0,4.5-3.7,8.1-8.1,8.1c-4.5,0-8.1-3.7-8.1-8.1c0-4.5,3.7-8.1,8.1-8.1S610.3,481.5,610.3,485.9z"
		/>
	<path class="st0" d="M680.3,235.7v243.6c0,5.8-4.7,10.4-10.4,10.4H494.2c-5.8,0-10.4-4.7-10.4-10.4V235.7c0-5.8,4.7-10.4,10.4-10.4
		h175.6C675.5,225.1,680.3,229.9,680.3,235.7z"/>
	<path class="st1" d="M680.3,235.7v243.6c0,5.8-4.7,10.4-10.4,10.4H494.2c-5.8,0-10.4-4.7-10.4-10.4V235.7c0-5.8,4.7-10.4,10.4-10.4
		h175.6C675.5,225.1,680.3,229.9,680.3,235.7z"/>
	<path class="st3" d="M582,430c0,0-89.4-53.1-86-103c3.3-49.8,63.7-57.2,86-12.2c22.3-45.2,82.7-37.9,86,12.2
		C671.4,376.9,582,430,582,430z"/>
	<path class="st2" d="M399.3,404.2H284.2c-6.4,0-11.6-5.1-11.6-11.6V157.3c0-6.4,5.1-11.6,11.6-11.6h115.1c6.4,0,11.6,5.1,11.6,11.6
		v235.3C410.9,399,405.7,404.2,399.3,404.2z"/>
	<path class="st1" d="M285.8,358.5V170.7c0-6.4,5.1-11.6,11.6-11.6h88.4c6.4,0,11.6,5.1,11.6,11.6v188c0,6.4-5.1,11.6-11.6,11.6
		h-88.4C291.1,370.1,285.8,365,285.8,358.5z"/>
	<circle class="st0" cx="341.6" cy="386.7" r="9.1"/>
	<path class="st3" d="M341.6,314.2c0,0-48.3-28.8-46.6-55.8s34.5-30.9,46.6-6.6c12.2-24.3,44.8-20.5,46.6,6.6
		C390.1,285.4,341.6,314.2,341.6,314.2z"/>
</g>
<line class="st5" x1="42.6" y1="264.4" x2="107.8" y2="264.4"/>
<line class="st5" x1="42.6" y1="275.1" x2="107.8" y2="275.1"/>
<line class="st5" x1="42.6" y1="285.7" x2="107.8" y2="285.7"/>
</svg>
