<?xml version="1.0" encoding="utf-8"?>
<!-- Generator: Adobe Illustrator 19.1.0, SVG Export Plug-In . SVG Version: 6.00 Build 0)  -->
<svg version="1.1" id="Layer_1" xmlns="http://www.w3.org/2000/svg" xmlns:xlink="http://www.w3.org/1999/xlink" x="0px" y="0px"
	 viewBox="0 0 1058 1058" style="enable-background:new 0 0 1058 1058;" xml:space="preserve">
<style type="text/css">
	.st0{fill:#A22426;}
	.st1{fill:#1B554A;}
	.st2{fill:#E6B258;}
	.st3{fill:#EEEEEE;}
</style>
<path class="st1" d="M1009.6,48.4c-4.5,4.4-4.1,32.3-5.1,38.2c-9,53.9-25.1,103.1-47.6,148.8c-7.5,15.4-15.8,30.3-24.7,45
	c-4,6.6-8.2,13.1-12.5,19.6c-4.3-3.4-9.8-5.4-15.7-5.4c-14.2,0-25.7,11.5-25.7,25.7c0,8.8,4.4,16.6,11.2,21.2
	c-4.7,6-9.5,11.9-14.5,17.8c-4-2.6-8.8-4.1-14-4.1c-14.2,0-25.7,11.5-25.7,25.7c0,6.1,2.2,11.8,5.8,16.2c-4,4.1-8,8.3-12.1,12.4
	c-1.5,1.5-3.1,3.1-4.7,4.7c-4.4-3.7-10.2-5.9-16.4-5.9c-14.2,0-25.7,11.5-25.7,25.7c0,5.4,1.7,10.4,4.5,14.5
	c-50.1,41.4-114.6,75.9-171.9,37L197.1,984.1c-34,34-89.2,34-123.2,0c-34-34-34-89.2,0-123.2L572.5,443
	C572.5,443,1002.8,54.5,1009.6,48.4z"/>
<path class="st1" d="M485.5,443l498.6,417.9c34,34,34,89.2,0,123.2s-89.2,34-123.2,0c0,0-417.9-498.6-417.9-498.6
	c-75.2,51.1-162.9-24.5-214.1-76C137.6,317.7,75,215.4,53.5,86.6c-1-6-0.7-34.2-5.2-38.3C48.4,48.4,485.5,443,485.5,443z"/>
</svg>
