<?xml version="1.0" encoding="utf-8"?>
<!-- Generator: Adobe Illustrator 19.2.0, SVG Export Plug-In . SVG Version: 6.00 Build 0)  -->
<svg version="1.1" id="Layer_1" xmlns="http://www.w3.org/2000/svg" xmlns:xlink="http://www.w3.org/1999/xlink" x="0px" y="0px"
	 viewBox="0 0 795 524" style="enable-background:new 0 0 795 524;" xml:space="preserve">
<style type="text/css">
	.st0{fill:#21B792;}
	.st1{fill:#B3DDCD;}
	.st2{fill:#EFEDEC;}
</style>
<path class="st0" d="M492.2,225.5l-29,58.5l68.9-34c25.6,11.5,55.5,18.1,87.3,18.1c95.8,0,173.4-59.5,173.4-133s-77.6-133-173.4-133
	S446,61.6,446,135.1C446,170,463.5,201.8,492.2,225.5z"/>
<path class="st1" d="M620.7,224.6c0,0,95.4-56.5,91.9-109.7c-3.5-53.2-68.1-60.9-91.9-12.9c-23.8-48-88.4-40.3-91.9,12.9
	C525.2,168,620.7,224.6,620.7,224.6z"/>
<path class="st0" d="M385,447.4l37,74.6l-87.6-43.4c-32.6,14.7-70.6,23-111.1,23c-121.8,0-220.5-76-220.5-169.6
	c0-93.7,98.7-169.6,220.5-169.6s220.5,76,220.5,169.6C443.9,376.6,421.5,417.1,385,447.4z"/>
<path class="st2" d="M285.2,250.4c-3.2,0-6.3,0.3-9.3,0.9c-9.7-21.4-31.3-36.2-56.3-36.2s-46.5,14.9-56.3,36.1
	c-2.8-0.6-5.7-0.8-8.6-0.8c-25.8,0-46.7,20.9-46.7,46.7c0,25.1,19.9,45.7,44.9,46.6v96.3c0,12.1,132.8,12.1,132.8,0v-16.6
	c-3.6,11.7-132.7,11.6-132.7-0.6v-6.8c3.6,11.7,132.7,11.6,132.7-0.6v-71.8c25.4-0.3,46-21,46-46.6
	C331.8,271.2,311,250.4,285.2,250.4z M191.2,390.4c0,4.3-3.4,7.7-7.7,7.7h-2.2c-2.1,0-4-0.9-5.4-2.2c-1.4-1.3-2.3-3.3-2.3-5.4v-50.7
	l0,0c5.4-2.4,10.2-5.7,14.3-9.9c1.1,0.7,2.2,1.2,3.3,1.9V390.4z M228.3,395.3c0,4.3-3.4,7.7-7.7,7.7h-2.2c-4.3,0-7.7-3.4-7.7-7.7
	v-57.4c3,0.4,5.9,0.7,9,0.7c2.9,0,5.7-0.2,8.6-0.6V395.3z M265.4,390.4c0,4.3-3.5,7.7-7.7,7.7h-2.2c-4.3,0-7.7-3.4-7.7-7.7v-58.6
	c1.3-0.8,2.8-1.4,4-2.2c3,3,6.3,5.6,9.9,7.7c1.2,0.7,2.5,1.3,3.7,2V390.4z"/>
</svg>
