<?xml version="1.0" encoding="utf-8"?>
<!-- Generator: Adobe Illustrator 19.2.0, SVG Export Plug-In . SVG Version: 6.00 Build 0)  -->
<svg version="1.1" id="Layer_1" xmlns="http://www.w3.org/2000/svg" xmlns:xlink="http://www.w3.org/1999/xlink" x="0px" y="0px"
	 viewBox="0 0 795 524" style="enable-background:new 0 0 795 524;" xml:space="preserve">
<style type="text/css">
	.st0{fill:#21B792;}
	.st1{fill:#B3DDCD;}
	.st2{fill:#EFEDEC;}
</style>
<path class="st0" d="M497.1,229.1L472,279.9l59.6-29.5c22.2,10,48,15.7,75.6,15.7c82.9,0,150.1-51.7,150.1-115.5
	c0-63.8-67.2-115.5-150.1-115.5c-82.9,0-150.1,51.7-150.1,115.5C457.1,180.9,472.3,208.5,497.1,229.1z"/>
<path class="st1" d="M608.3,228.3c0,0,82.6-49.1,79.5-95.3c-3-46.2-58.9-52.9-79.5-11.2c-20.6-41.7-76.5-35-79.5,11.2
	C525.7,179.2,608.3,228.3,608.3,228.3z"/>
<path class="st0" d="M385.3,420.3l33.6,67.7l-79.5-39.4c-29.6,13.3-64.1,20.9-100.9,20.9c-110.6,0-200.2-69-200.2-154
	c0-85.1,89.6-154,200.2-154c110.6,0,200.2,69,200.2,154C438.7,356,418.4,392.8,385.3,420.3z"/>
<path class="st2" d="M294.7,241.4c-2.9,0-5.7,0.3-8.4,0.8c-8.8-19.4-28.4-32.9-51.1-32.9c-22.7,0-42.2,13.5-51.1,32.8
	c-2.5-0.5-5.2-0.7-7.8-0.7c-23.4,0-42.4,19-42.4,42.4c0,22.8,18.1,41.5,40.8,42.3v87.4c0,11,120.6,11,120.6,0v-15.1
	c-3.3,10.6-120.5,10.5-120.5-0.5v-6.2c3.3,10.6,120.5,10.5,120.5-0.5v-65.2c23.1-0.3,41.8-19.1,41.8-42.3
	C337,260.3,318.1,241.4,294.7,241.4z M209.3,368.5c0,3.9-3.1,7-7,7h-2c-1.9,0-3.6-0.8-4.9-2c-1.3-1.2-2.1-3-2.1-4.9v-46h0
	c4.9-2.2,9.3-5.2,13-9c1,0.6,2,1.1,3,1.7V368.5z M243,373c0,3.9-3.1,7-7,7h-2c-3.9,0-7-3.1-7-7v-52.1c2.7,0.4,5.4,0.6,8.2,0.6
	c2.6,0,5.2-0.2,7.8-0.5V373z M276.7,368.5c0,3.9-3.2,7-7,7h-2c-3.9,0-7-3.1-7-7v-53.2c1.2-0.7,2.5-1.3,3.6-2c2.7,2.7,5.7,5.1,9,7
	c1.1,0.6,2.3,1.2,3.4,1.8V368.5z"/>
</svg>
